<?xml version="1.0" encoding="utf-8"?>
<!-- Generator: Adobe Illustrator 22.0.1, SVG Export Plug-In . SVG Version: 6.00 Build 0)  -->
<svg version="1.1" id="Calque_1" xmlns="http://www.w3.org/2000/svg" xmlns:xlink="http://www.w3.org/1999/xlink" x="0px" y="0px"
	 viewBox="0 0 934 153.1" style="enable-background:new 0 0 934 153.1;" xml:space="preserve">
<style type="text/css">
	.st0{fill:#009FE3;}
</style>
<g>
	<g>
		<g>
			<path d="M437.9,14.1h-14.8V3.5h51.1c16.4,0,28.8,3.9,40.8,15.6c11.2,11.1,17,26.4,17,42.1c0,15.1-5.9,29.7-16.4,40.8
				c-11.7,12.4-24.8,16.2-41.5,16.2h-51.1v-10.6h14.8V14.1z M472,107.6c13.8,0,25.2-2.2,35-12.7c8.4-8.8,13.5-21.7,13.5-33.9
				c0-12.9-5-26.4-14.5-35.4c-10.1-9.6-19.9-11.6-33.6-11.6h-23v93.5H472z"/>
			<path d="M564.2,108.3h14.1v10h-39.2v-10h14.5V43.8h-14.1v-10h24.7V108.3z M564.2,20.1h-10.6V3.5h10.6V20.1z"/>
			<path d="M600.2,127.4c5.1,10.4,16.2,16.6,27.8,16.6c8.7,0,17.5-4,23.3-10.3c7.2-7.6,8.7-14.8,8.7-24.9v-9
				c-6.6,13-19.4,20.7-34.4,20.7c-12.1,0-30.1-7.2-37.1-20.7c-2.9-5.5-6.3-14-6.3-23.5c0-10.1,3.4-19,7.2-24.4
				c8.5-12.1,22.2-19.4,36.8-19.4c14.5,0,27.5,7.6,33.8,19.4v-18h24.8v10h-14.1v62.8c0,12.9-1.4,22.7-10.4,32.5
				c-8.5,9.3-20.4,14-32.8,14c-16.7,0-33.8-9-39.4-25.7H600.2z M660.8,76.3c0-18.6-15.1-34.1-33.9-34.1c-18.8,0-34.1,15.6-34.1,34.4
				c0,18.6,15.6,33.9,34.2,33.9C645.9,110.5,660.8,94.9,660.8,76.3z"/>
			<path d="M715.3,108.3h14.1v10h-39.2v-10h14.5V43.8h-14.1v-10h24.8V108.3z M715.3,20.1h-10.6V3.5h10.6V20.1z"/>
			<path d="M760.1,108.3h19.9v10h-30.5V43.8h-16.2v-10h16.2V3.5h10.6v30.4h18.6v10h-18.6V108.3z"/>
			<path d="M864.6,100.7c-7.4,12.7-19.8,19.8-34.4,19.8c-15.4,0-29.6-7.6-37-19.8c-4.2-6.9-7.1-14.9-6.8-24.3
				c0-12.2,3.5-17.8,7.1-24.1c6.9-12.2,21.2-19.9,36.5-19.9c15.3,0,26.8,7.1,34.6,19.9V33.9h24.6v10h-14v64.5h14v10h-24.6V100.7z
				 M797.1,76.6c0,18.2,15.1,33.6,33.6,33.6c19.1,0,34.1-15.1,34.1-33.9c0-18.5-15.1-33.4-33.6-33.4C812.5,42.9,797.1,58,797.1,76.6
				z"/>
			<path d="M920.1,108.3h14v10h-39.7v-10h15.1V13.5h-14.1v-10h24.8V108.3z"/>
		</g>
		<g>
			<path d="M351.3,118.3H305L253.5,3.5h46.8L351.3,118.3z M61.2,0C27.4,0,0,27.5,0,61.3c0,33.7,27.4,61.2,61.2,61.2
				c21.5,0,41.1-11,52.3-29.4l-3.6-2.2c-10.5,17.1-28.7,27.4-48.7,27.4v-57h61.2C122.4,27.5,94.9,0,61.2,0z M198.6,118.2v-57v-57
				c17.9,0,34.4,8.2,45.3,22.4l3.3-2.6C235.6,8.8,217.8,0,198.6,0c-33.8,0-61.2,27.5-61.2,61.2c0,33.7,27.5,61.2,61.2,61.2
				c19.2,0,36.9-8.8,48.6-24l-3.3-2.6C233,110.1,216.5,118.2,198.6,118.2z"/>
		</g>
	</g>
	<path class="st0" d="M391.5,48.6h-45.1V3.5h45.1V48.6z"/>
</g>
</svg>
